<svg width="19" height="15" viewBox="0 0 19 15" fill="none" xmlns="http://www.w3.org/2000/svg">
<path d="M16.5571 3.84375C16.5571 4.01953 16.5571 4.16016 16.5571 4.33594C16.5571 9.22266 12.8657 14.8125 6.08057 14.8125C3.97119 14.8125 2.0376 14.2148 0.42041 13.1602C0.70166 13.1953 0.98291 13.2305 1.29932 13.2305C3.02197 13.2305 4.604 12.6328 5.86963 11.6484C4.25244 11.6133 2.88135 10.5586 2.42432 9.08203C2.67041 9.11719 2.88135 9.15234 3.12744 9.15234C3.44385 9.15234 3.79541 9.08203 4.07666 9.01172C2.38916 8.66016 1.12354 7.18359 1.12354 5.39062V5.35547C1.61572 5.63672 2.21338 5.77734 2.81104 5.8125C1.7915 5.14453 1.15869 4.01953 1.15869 2.75391C1.15869 2.05078 1.33447 1.41797 1.65088 0.890625C3.479 3.10547 6.22119 4.58203 9.27979 4.75781C9.20947 4.47656 9.17432 4.19531 9.17432 3.91406C9.17432 1.875 10.8267 0.222656 12.8657 0.222656C13.9204 0.222656 14.8696 0.644531 15.5728 1.38281C16.3813 1.20703 17.1899 0.890625 17.8931 0.46875C17.6118 1.34766 17.0493 2.05078 16.2759 2.50781C17.0142 2.4375 17.7524 2.22656 18.3853 1.94531C17.8931 2.68359 17.2603 3.31641 16.5571 3.84375Z" fill="#183354"/>
<a href="https://www.figma.com/design/GbVhwgDrxqkzjCJgiIpkUW/75---News-Magizine--WebsiteTemplates--Community-?node-id=4-913">
<rect fill="black" fill-opacity="0" y="-1.35" width="18" height="20.7"/>
</a>
</svg>
