<svg width="14" height="19" viewBox="0 0 14 19" fill="none" xmlns="http://www.w3.org/2000/svg">
<path d="M7.3623 0.746094C10.667 0.746094 13.6904 3.03125 13.6904 6.51172C13.6904 9.78125 12.0029 13.4375 8.27637 13.4375C7.3623 13.4375 6.27246 12.9805 5.81543 12.1719C5.04199 15.3359 5.07715 15.8281 3.31934 18.2539C3.14355 18.3242 3.17871 18.3242 3.07324 18.1836C3.00293 17.5156 2.93262 16.8828 2.93262 16.2148C2.93262 14.0703 3.91699 10.9414 4.40918 8.86719C4.12793 8.30469 4.05762 7.67188 4.05762 7.07422C4.05762 4.26172 7.3623 3.83984 7.3623 6.16016C7.3623 7.53125 6.41309 8.83203 6.41309 10.168C6.41309 11.0469 7.18652 11.6797 8.06543 11.6797C10.4912 11.6797 11.2295 8.19922 11.2295 6.33594C11.2295 3.83984 9.47168 2.46875 7.0459 2.46875C4.26855 2.46875 2.12402 4.47266 2.12402 7.28516C2.12402 8.65625 2.96777 9.35938 2.96777 9.67578C2.96777 9.95703 2.75684 10.9062 2.40527 10.9062C1.56152 10.9062 0.19043 9.5 0.19043 7.03906C0.19043 3.13672 3.74121 0.746094 7.3623 0.746094Z" fill="#183354"/>
<a href="https://www.figma.com/design/GbVhwgDrxqkzjCJgiIpkUW/75---News-Magizine--WebsiteTemplates--Community-?node-id=4-913">
<rect fill="black" fill-opacity="0" y="-1.35" width="13.5" height="20.7"/>
</a>
</svg>
