<svg width="17" height="16" viewBox="0 0 17 16" fill="none" xmlns="http://www.w3.org/2000/svg">
<path d="M8.46533 3.95703C10.6802 3.95703 12.5083 5.78516 12.5083 8C12.5083 10.25 10.6802 12.043 8.46533 12.043C6.21533 12.043 4.42236 10.25 4.42236 8C4.42236 5.78516 6.21533 3.95703 8.46533 3.95703ZM8.46533 10.6367C9.90674 10.6367 11.0669 9.47656 11.0669 8C11.0669 6.55859 9.90674 5.39844 8.46533 5.39844C6.98877 5.39844 5.82861 6.55859 5.82861 8C5.82861 9.47656 7.02393 10.6367 8.46533 10.6367ZM13.5981 3.81641C13.5981 4.34375 13.1763 4.76562 12.6489 4.76562C12.1216 4.76562 11.6997 4.34375 11.6997 3.81641C11.6997 3.28906 12.1216 2.86719 12.6489 2.86719C13.1763 2.86719 13.5981 3.28906 13.5981 3.81641ZM16.27 4.76562C16.3403 6.06641 16.3403 9.96875 16.27 11.2695C16.1997 12.5352 15.9185 13.625 15.0044 14.5742C14.0903 15.4883 12.9653 15.7695 11.6997 15.8398C10.3989 15.9102 6.49658 15.9102 5.1958 15.8398C3.93018 15.7695 2.84033 15.4883 1.89111 14.5742C0.977051 13.625 0.695801 12.5352 0.625488 11.2695C0.555176 9.96875 0.555176 6.06641 0.625488 4.76562C0.695801 3.5 0.977051 2.375 1.89111 1.46094C2.84033 0.546875 3.93018 0.265625 5.1958 0.195312C6.49658 0.125 10.3989 0.125 11.6997 0.195312C12.9653 0.265625 14.0903 0.546875 15.0044 1.46094C15.9185 2.375 16.1997 3.5 16.27 4.76562ZM14.5825 12.6406C15.0044 11.6211 14.8989 9.16016 14.8989 8C14.8989 6.875 15.0044 4.41406 14.5825 3.35938C14.3013 2.69141 13.7739 2.12891 13.106 1.88281C12.0513 1.46094 9.59033 1.56641 8.46533 1.56641C7.30518 1.56641 4.84424 1.46094 3.82471 1.88281C3.12158 2.16406 2.59424 2.69141 2.31299 3.35938C1.89111 4.41406 1.99658 6.875 1.99658 8C1.99658 9.16016 1.89111 11.6211 2.31299 12.6406C2.59424 13.3438 3.12158 13.8711 3.82471 14.1523C4.84424 14.5742 7.30518 14.4688 8.46533 14.4688C9.59033 14.4688 12.0513 14.5742 13.106 14.1523C13.7739 13.8711 14.3364 13.3438 14.5825 12.6406Z" fill="#183354"/>
<a href="https://www.figma.com/design/GbVhwgDrxqkzjCJgiIpkUW/75---News-Magizine--WebsiteTemplates--Community-?node-id=4-913">
<rect fill="black" fill-opacity="0" y="-1.35" width="15.75" height="20.7"/>
</a>
</svg>
