<svg width="20" height="14" viewBox="0 0 20 14" fill="none" xmlns="http://www.w3.org/2000/svg">
<path d="M19.3911 2.39453C19.813 3.87109 19.813 7.03516 19.813 7.03516C19.813 7.03516 19.813 10.1641 19.3911 11.6758C19.1802 12.5195 18.5122 13.1523 17.7036 13.3633C16.1919 13.75 10.2153 13.75 10.2153 13.75C10.2153 13.75 4.20361 13.75 2.69189 13.3633C1.8833 13.1523 1.21533 12.5195 1.00439 11.6758C0.58252 10.1641 0.58252 7.03516 0.58252 7.03516C0.58252 7.03516 0.58252 3.87109 1.00439 2.39453C1.21533 1.55078 1.8833 0.882812 2.69189 0.671875C4.20361 0.25 10.2153 0.25 10.2153 0.25C10.2153 0.25 16.1919 0.25 17.7036 0.671875C18.5122 0.882812 19.1802 1.55078 19.3911 2.39453ZM8.24658 9.88281L13.2388 7.03516L8.24658 4.1875V9.88281Z" fill="#183354"/>
<a href="https://www.figma.com/design/GbVhwgDrxqkzjCJgiIpkUW/75---News-Magizine--WebsiteTemplates--Community-?node-id=4-913">
<rect fill="black" fill-opacity="0" y="-1.35" width="20.25" height="20.7"/>
</a>
</svg>
