<svg width="17" height="17" viewBox="0 0 17 17" fill="none" xmlns="http://www.w3.org/2000/svg">
<path d="M4.49609 16.25H1.22656V5.73828H4.49609V16.25ZM2.84375 4.33203C1.82422 4.33203 0.980469 3.45312 0.980469 2.39844C0.980469 1.37891 1.82422 0.535156 2.84375 0.535156C3.89844 0.535156 4.74219 1.37891 4.74219 2.39844C4.74219 3.45312 3.89844 4.33203 2.84375 4.33203ZM16.6953 16.25H13.4609V11.1523C13.4609 9.92188 13.4258 8.375 11.7383 8.375C10.0508 8.375 9.80469 9.67578 9.80469 11.0469V16.25H6.53516V5.73828H9.66406V7.17969H9.69922C10.1562 6.37109 11.2109 5.49219 12.793 5.49219C16.0977 5.49219 16.7305 7.67188 16.7305 10.4844V16.25H16.6953Z" fill="#183354"/>
<a href="https://www.figma.com/design/GbVhwgDrxqkzjCJgiIpkUW/75---News-Magizine--WebsiteTemplates--Community-?node-id=4-913">
<rect fill="black" fill-opacity="0" y="-1.35" width="15.75" height="20.7"/>
</a>
</svg>
