<svg width="17" height="16" viewBox="0 0 17 16" fill="none" xmlns="http://www.w3.org/2000/svg">
<path d="M8.37162 8.64002L11.3583 10.88C11.465 10.9867 11.5894 11.0311 11.7316 11.0134C11.8738 10.9956 11.9805 10.9245 12.0516 10.8C12.1227 10.6756 12.1494 10.5511 12.1316 10.4267C12.1138 10.3022 12.0516 10.1867 11.945 10.08L9.17162 8.00002V3.73335C9.17162 3.59113 9.12718 3.47557 9.03829 3.38669C8.9494 3.2978 8.83384 3.25335 8.69162 3.25335C8.5494 3.25335 8.42495 3.2978 8.31829 3.38669C8.21162 3.47557 8.15829 3.59113 8.15829 3.73335V8.26669C8.15829 8.44446 8.2294 8.56891 8.37162 8.64002ZM8.90495 0.48002C7.73162 0.48002 6.61162 0.755575 5.54495 1.30669C4.47829 1.8578 3.5894 2.60446 2.87829 3.54669C2.16718 4.48891 1.72273 5.56446 1.54495 6.77335L1.33162 6.45335C1.26051 6.34669 1.15384 6.28446 1.01162 6.26669C0.869399 6.24891 0.744954 6.27557 0.638288 6.34669C0.531621 6.4178 0.46051 6.52446 0.424954 6.66669C0.389399 6.80891 0.424954 6.93335 0.531621 7.04002L1.49162 8.53335C1.59829 8.67557 1.72273 8.74669 1.86495 8.74669H1.91829C2.06051 8.74669 2.18495 8.69335 2.29162 8.58669L3.51829 7.36002C3.62495 7.25335 3.67829 7.12891 3.67829 6.98669C3.67829 6.84446 3.62495 6.72891 3.51829 6.64002C3.41162 6.55113 3.29607 6.50669 3.17162 6.50669C3.04718 6.50669 2.93162 6.56002 2.82495 6.66669L2.50495 6.93335C2.68273 5.79558 3.14495 4.78224 3.89162 3.89335C4.63829 3.00446 5.54495 2.34669 6.61162 1.92002C7.67829 1.49335 8.79829 1.3778 9.97162 1.57335C11.145 1.76891 12.1761 2.23113 13.065 2.96002C13.9538 3.68891 14.6027 4.59557 15.0116 5.68002C15.4205 6.76446 15.5361 7.89335 15.3583 9.06669C15.1805 10.0978 14.7894 11.0222 14.185 11.84C13.5805 12.6578 12.8161 13.3067 11.8916 13.7867C10.9672 14.2667 9.9894 14.5067 8.95829 14.5067C7.92718 14.5067 6.95829 14.2845 6.05162 13.84C5.14495 13.3956 4.40718 12.7645 3.83829 11.9467C3.76718 11.84 3.66051 11.7778 3.51829 11.76C3.37607 11.7422 3.25162 11.7689 3.14495 11.84C3.03829 11.9111 2.96718 12.0178 2.93162 12.16C2.89607 12.3022 2.93162 12.4267 3.03829 12.5334C3.71384 13.4934 4.57607 14.2311 5.62495 14.7467C6.67384 15.2622 7.76718 15.52 8.90495 15.52C10.2916 15.52 11.5538 15.1822 12.6916 14.5067C13.8294 13.8311 14.7361 12.9156 15.4116 11.76C16.0872 10.6045 16.425 9.35113 16.425 8.00002C16.425 6.64891 16.0872 5.39557 15.4116 4.24002C14.7361 3.08446 13.8294 2.16891 12.6916 1.49335C11.5538 0.817797 10.2916 0.48002 8.90495 0.48002Z" fill="#BACCE1"/>
</svg>
