<svg width="76" height="57" viewBox="0 0 76 57" fill="none" xmlns="http://www.w3.org/2000/svg">
<path d="M69.2505 0.75H6.75049C5.08382 0.916668 3.62549 1.58333 2.37549 2.75C1.12549 3.91667 0.500488 5.41667 0.500488 7.25V51C0.500488 52.6667 1.12549 54.0833 2.37549 55.25C3.62549 56.4167 5.08382 57 6.75049 57H69.2505C70.9172 57 72.3755 56.4167 73.6255 55.25C74.8755 54.0833 75.5005 52.5833 75.5005 50.75V7.25C75.5005 5.41667 74.8755 3.91667 73.6255 2.75C72.3755 1.58333 70.9172 1 69.2505 1V0.75ZM6.75049 4H69.2505L70.0005 4.25L40.2505 31.25C39.5838 31.75 38.8338 32 38.0005 32C37.1672 32 36.4172 31.75 35.7505 31.25L6.00049 4.25L6.75049 4ZM3.50049 50.75V7.25L3.75049 6.25L28.5005 29C22.6672 34 14.4172 41.5833 3.75049 51.75L3.50049 50.75ZM69.2505 54H6.75049L6.00049 53.75C16.8338 43.5833 25.1672 36 31.0005 31L33.7505 33.5C34.9172 34.6667 36.3338 35.25 38.0005 35.25C39.6672 35.25 41.0838 34.6667 42.2505 33.5L45.0005 31C50.8338 36 59.1672 43.5833 70.0005 53.75L69.2505 54ZM72.5005 50.75C72.5005 50.9167 72.4172 51.1667 72.2505 51.5V51.75C61.5838 41.5833 53.3338 34 47.5005 29L72.2505 6.25L72.5005 7V50.75Z" fill="#7B96B7"/>
</svg>
